# xmcd
#
# Track frame offsets:
#	150
#	13652
#	35099
#	51273
#	70366
#	84779
#	101869
#	116971
#	134968
#	152504
#	169529
#	185994
#	201723
#	219115
#	241555
#	255268
#
# Disc length: 3623 seconds
#
# Revision: 1
# Processed by: cddbd v1.5.2PL0 Copyright (c) Steve Scherf et al.
# Submitted via: audiograbber 1.83.01
#
DISCID=e70e2510
DTITLE=JonesTM - HC200737
DYEAR=2007
DGENRE=Country
TTITLE0=Jypsi - Love Is A Drug
TTITLE1=Sugarland - Stay [Album Version]
TTITLE2=Dolly Parton - Better Get To Livin'
TTITLE3=Cody McCarver - Through God's Eyes
TTITLE4=Shooter Jennings - Walk Of Life [Radio Edit]
TTITLE5=Rodney Atkins - Cleaning This Gun (Come On In Boy)
TTITLE6=Gretchen Wilson - You Don't Have To Go Home [Radio Edit]
TTITLE7=Akon - Never Took The Time [Main]
TTITLE8=Johnta Austin - The One That Got Away [Main]
TTITLE9=Men At Large - Out Of Town Lover [Album Version]
TTITLE10=J. Holiday - Suffocate [Radio Edit]
TTITLE11=Vickie Winans - Special Day
TTITLE12=Kool and The Gang - Dave
TTITLE13=Jonathan Butler - Sarah Sarah [Album Version]
TTITLE14=Emily King - Ain't No Sunshine
TTITLE15=MainGazane - Seinfeld
EXTD=
EXTT0=
EXTT1=
EXTT2=
EXTT3=
EXTT4=
EXTT5=
EXTT6=
EXTT7=
EXTT8=
EXTT9=
EXTT10=
EXTT11=
EXTT12=
EXTT13=
EXTT14=
EXTT15=
PLAYORDER=
